<?xml version="1.0" encoding="UTF-8" standalone="no"?><svg xmlns="http://www.w3.org/2000/svg" xmlns:xlink="http://www.w3.org/1999/xlink" contentStyleType="text/css" height="372px" preserveAspectRatio="none" style="width:521px;height:372px;background:#FFFFFF;" version="1.1" viewBox="0 0 521 372" width="521px" zoomAndPan="magnify"><defs/><g><path d="M19.5,7 L495.5,7 A12.5,12.5 0 0 1 508,19.5 L508,36.0679 L7,36.0679 L7,19.5 A12.5,12.5 0 0 1 19.5,7 " fill="#F1F1F1" style="stroke:#F1F1F1;stroke-width:1.0;"/><rect fill="none" height="359.0679" rx="12.5" ry="12.5" style="stroke:#181818;stroke-width:0.5;" width="501" x="7" y="7"/><line style="stroke:#181818;stroke-width:0.5;" x1="7" x2="508" y1="36.0679" y2="36.0679"/><text fill="#000000" font-family="sans-serif" font-size="14" lengthAdjust="spacing" textLength="205" x="155" y="26.9659">Balance entre teoría y práctica</text><g id="balance.integracion"><rect fill="#F1F1F1" height="50" rx="12.5" ry="12.5" style="stroke:#181818;stroke-width:0.5;" width="231" x="19" y="48.0679"/><line style="stroke:#181818;stroke-width:0.5;" x1="19" x2="250" y1="77.1358" y2="77.1358"/><text fill="#000000" font-family="sans-serif" font-size="14" lengthAdjust="spacing" textLength="211" x="29" y="68.0339">Integración de teoría y práctica</text></g><g id="balance.relevancia"><rect fill="#F1F1F1" height="50" rx="12.5" ry="12.5" style="stroke:#181818;stroke-width:0.5;" width="172" x="48.5" y="134.0679"/><line style="stroke:#181818;stroke-width:0.5;" x1="48.5" x2="220.5" y1="163.1358" y2="163.1358"/><text fill="#000000" font-family="sans-serif" font-size="14" lengthAdjust="spacing" textLength="152" x="58.5" y="154.0339">Relevancia de la teoría</text></g><g id="balance.centrado"><rect fill="#F1F1F1" height="50" rx="12.5" ry="12.5" style="stroke:#181818;stroke-width:0.5;" width="202" x="238.5" y="134.0679"/><line style="stroke:#181818;stroke-width:0.5;" x1="238.5" x2="440.5" y1="163.1358" y2="163.1358"/><text fill="#000000" font-family="sans-serif" font-size="14" lengthAdjust="spacing" textLength="182" x="248.5" y="154.0339">Centrados en el estudiante</text></g><g id="balance.mundoLaboral"><rect fill="#F1F1F1" height="50" rx="12.5" ry="12.5" style="stroke:#181818;stroke-width:0.5;" width="190" x="39.5" y="220.0679"/><line style="stroke:#181818;stroke-width:0.5;" x1="39.5" x2="229.5" y1="249.1358" y2="249.1358"/><text fill="#000000" font-family="sans-serif" font-size="14" lengthAdjust="spacing" textLength="170" x="49.5" y="240.0339">Atentos al mundo laboral</text></g><g id="balance.habilidadesBlandas"><rect fill="#F1F1F1" height="50" rx="12.5" ry="12.5" style="stroke:#181818;stroke-width:0.5;" width="251" x="248" y="220.0679"/><line style="stroke:#181818;stroke-width:0.5;" x1="248" x2="499" y1="249.1358" y2="249.1358"/><text fill="#000000" font-family="sans-serif" font-size="14" lengthAdjust="spacing" textLength="231" x="258" y="240.0339">Desarrollo de habilidades blandas</text></g><g id="balance.evaluacion"><rect fill="#F1F1F1" height="50" rx="12.5" ry="12.5" style="stroke:#181818;stroke-width:0.5;" width="92" x="88.5" y="306.0679"/><line style="stroke:#181818;stroke-width:0.5;" x1="88.5" x2="180.5" y1="335.1358" y2="335.1358"/><text fill="#000000" font-family="sans-serif" font-size="14" lengthAdjust="spacing" textLength="72" x="98.5" y="326.0339">Evaluación</text></g><!--MD5=[0633c4ce7bea89639a10c8e01c7c3434]
link integracion to relevancia--><g id="link_integracion_relevancia"><path d="M134.5,98.3679 C134.5,107.8579 134.5,118.8179 134.5,128.7479 " fill="none" id="integracion-to-relevancia" style="stroke:#181818;stroke-width:1.0;"/><polygon fill="#181818" points="134.5,133.8279,138.5,124.8279,134.5,128.8279,130.5,124.8279,134.5,133.8279" style="stroke:#181818;stroke-width:1.0;"/></g><!--MD5=[3339df28942683d6a5987035d1ebbf9f]
link relevancia to centrado--><g id="link_relevancia_centrado"><path d="M220.58,159.0679 C224.72,159.0679 228.86,159.0679 233,159.0679 " fill="none" id="relevancia-to-centrado" style="stroke:#181818;stroke-width:1.0;"/><polygon fill="#181818" points="238.24,159.0679,229.24,155.0679,233.24,159.0679,229.24,163.0679,238.24,159.0679" style="stroke:#181818;stroke-width:1.0;"/></g><!--MD5=[3681b645e20e0ebccdb69cbd1b7023fe]
link relevancia to mundoLaboral--><g id="link_relevancia_mundoLaboral"><path d="M134.5,184.3679 C134.5,193.8579 134.5,204.8179 134.5,214.7479 " fill="none" id="relevancia-to-mundoLaboral" style="stroke:#181818;stroke-width:1.0;"/><polygon fill="#181818" points="134.5,219.8279,138.5,210.8279,134.5,214.8279,130.5,210.8279,134.5,219.8279" style="stroke:#181818;stroke-width:1.0;"/></g><!--MD5=[6ec02b6fa56fd0641ba4b0eba9466fe2]
link mundoLaboral to habilidadesBlandas--><g id="link_mundoLaboral_habilidadesBlandas"><path d="M229.73,245.0679 C234.1,245.0679 238.47,245.0679 242.85,245.0679 " fill="none" id="mundoLaboral-to-habilidadesBlandas" style="stroke:#181818;stroke-width:1.0;"/><polygon fill="#181818" points="247.98,245.0679,238.98,241.0679,242.98,245.0679,238.98,249.0679,247.98,245.0679" style="stroke:#181818;stroke-width:1.0;"/></g><!--MD5=[ddf892f841bc6e396ed6589effea2542]
link mundoLaboral to evaluacion--><g id="link_mundoLaboral_evaluacion"><path d="M134.5,270.3679 C134.5,279.8579 134.5,290.8179 134.5,300.7479 " fill="none" id="mundoLaboral-to-evaluacion" style="stroke:#181818;stroke-width:1.0;"/><polygon fill="#181818" points="134.5,305.8279,138.5,296.8279,134.5,300.8279,130.5,296.8279,134.5,305.8279" style="stroke:#181818;stroke-width:1.0;"/></g><!--MD5=[d07bf9b2e47a7ef7ada33d28c00dd7d4]
@startuml
state "Balance entre teoría y práctica" as balance {
    
    state "Integración de teoría y práctica" as integracion
    state "Relevancia de la teoría" as relevancia
    state "Centrados en el estudiante" as centrado
    state "Atentos al mundo laboral" as mundoLaboral
    state "Desarrollo de habilidades blandas" as habilidadesBlandas
    state "Evaluación" as evaluacion

    integracion -d->relevancia
    relevancia -r-> centrado
    relevancia -d->mundoLaboral
    mundoLaboral -r-> habilidadesBlandas
    mundoLaboral -d-> evaluacion
}
@enduml

PlantUML version 1.2022.7(Mon Aug 22 19:01:30 CEST 2022)
(GPL source distribution)
Java Runtime: OpenJDK Runtime Environment
JVM: OpenJDK 64-Bit Server VM
Default Encoding: UTF-8
Language: es
Country: ES
--></g></svg>