<?xml version="1.0" encoding="UTF-8" standalone="no"?><svg xmlns="http://www.w3.org/2000/svg" xmlns:xlink="http://www.w3.org/1999/xlink" contentStyleType="text/css" height="298px" preserveAspectRatio="none" style="width:715px;height:298px;background:#FFFFFF;" version="1.1" viewBox="0 0 715 298" width="715px" zoomAndPan="magnify"><defs/><g><rect fill="none" height="29.0679" id="_title" style="stroke:none;stroke-width:1.0;" width="139" x="286.5" y="15"/><text fill="#000000" font-family="sans-serif" font-size="14" font-weight="bold" lengthAdjust="spacing" textLength="129" x="291.5" y="34.9659">Perfil del egresado</text><rect fill="#F1F1F1" height="39.0679" rx="12.5" ry="12.5" style="stroke:#181818;stroke-width:1.5;" width="83" x="331" y="148.6698"/><text fill="#000000" font-family="sans-serif" font-size="14" lengthAdjust="spacing" textLength="63" x="341" y="173.6357">Egresado</text><rect fill="#F1F1F1" height="39.0679" rx="12.5" ry="12.5" style="stroke:#181818;stroke-width:1.5;" width="237" x="464" y="60.0679"/><text fill="#000000" font-family="sans-serif" font-size="14" font-weight="bold" lengthAdjust="spacing" textLength="47" x="474" y="85.0339">Ejercer</text><text fill="#000000" font-family="sans-serif" font-size="14" lengthAdjust="spacing" textLength="166" x="525" y="85.0339">ética y profesionalmente</text><path d="M414,168.2038 L424,168.2038 C439,168.2038 439,79.6019 454,79.6019 L464,79.6019 " fill="none" style="stroke:#181818;stroke-width:1.0;"/><rect fill="#F1F1F1" height="39.0679" rx="12.5" ry="12.5" style="stroke:#181818;stroke-width:1.5;" width="239" x="464" y="119.1358"/><text fill="#000000" font-family="sans-serif" font-size="14" font-weight="bold" lengthAdjust="spacing" textLength="74" x="474" y="144.1018">Responder</text><text fill="#000000" font-family="sans-serif" font-size="14" lengthAdjust="spacing" textLength="141" x="552" y="144.1018">necesidades sociales</text><path d="M414,168.2038 L424,168.2038 C439,168.2038 439,138.6698 454,138.6698 L464,138.6698 " fill="none" style="stroke:#181818;stroke-width:1.0;"/><rect fill="#F1F1F1" height="39.0679" rx="12.5" ry="12.5" style="stroke:#181818;stroke-width:1.5;" width="235" x="464" y="178.2038"/><text fill="#000000" font-family="sans-serif" font-size="14" font-weight="bold" lengthAdjust="spacing" textLength="58" x="474" y="203.1697">Elaborar</text><text fill="#000000" font-family="sans-serif" font-size="14" lengthAdjust="spacing" textLength="153" x="536" y="203.1697">proyectos informáticos</text><path d="M414,168.2038 L424,168.2038 C439,168.2038 439,197.7377 454,197.7377 L464,197.7377 " fill="none" style="stroke:#181818;stroke-width:1.0;"/><rect fill="#F1F1F1" height="39.0679" rx="12.5" ry="12.5" style="stroke:#181818;stroke-width:1.5;" width="233" x="464" y="237.2717"/><text fill="#000000" font-family="sans-serif" font-size="14" font-weight="bold" lengthAdjust="spacing" textLength="50" x="474" y="262.2376">Utilizar</text><text fill="#000000" font-family="sans-serif" font-size="14" lengthAdjust="spacing" textLength="159" x="528" y="262.2376">metodologías bienestar</text><path d="M414,168.2038 L424,168.2038 C439,168.2038 439,256.8056 454,256.8056 L464,256.8056 " fill="none" style="stroke:#181818;stroke-width:1.0;"/><rect fill="#F1F1F1" height="39.0679" rx="12.5" ry="12.5" style="stroke:#181818;stroke-width:1.5;" width="212" x="69" y="60.0679"/><text fill="#000000" font-family="sans-serif" font-size="14" font-weight="bold" lengthAdjust="spacing" textLength="56" x="79" y="85.0339">Analizar</text><text fill="#000000" font-family="sans-serif" font-size="14" lengthAdjust="spacing" textLength="132" x="139" y="85.0339">fenómenos sociales</text><path d="M331,168.2038 L321,168.2038 C306,168.2038 306,79.6019 291,79.6019 L281,79.6019 " fill="none" style="stroke:#181818;stroke-width:1.0;"/><rect fill="#F1F1F1" height="39.0679" rx="12.5" ry="12.5" style="stroke:#181818;stroke-width:1.5;" width="271" x="10" y="119.1358"/><text fill="#000000" font-family="sans-serif" font-size="14" font-weight="bold" lengthAdjust="spacing" textLength="68" x="20" y="144.1018">Colaborar</text><text fill="#000000" font-family="sans-serif" font-size="14" lengthAdjust="spacing" textLength="179" x="92" y="144.1018">equipos multidisciplinares</text><path d="M331,168.2038 L321,168.2038 C306,168.2038 306,138.6698 291,138.6698 L281,138.6698 " fill="none" style="stroke:#181818;stroke-width:1.0;"/><rect fill="#F1F1F1" height="39.0679" rx="12.5" ry="12.5" style="stroke:#181818;stroke-width:1.5;" width="256" x="25" y="178.2038"/><text fill="#000000" font-family="sans-serif" font-size="14" font-weight="bold" lengthAdjust="spacing" textLength="62" x="35" y="203.1697">Impulsar</text><text fill="#000000" font-family="sans-serif" font-size="14" lengthAdjust="spacing" textLength="170" x="101" y="203.1697">emprendimiento integral</text><path d="M331,168.2038 L321,168.2038 C306,168.2038 306,197.7377 291,197.7377 L281,197.7377 " fill="none" style="stroke:#181818;stroke-width:1.0;"/><rect fill="#F1F1F1" height="39.0679" rx="12.5" ry="12.5" style="stroke:#181818;stroke-width:1.5;" width="191" x="90" y="237.2717"/><text fill="#000000" font-family="sans-serif" font-size="14" font-weight="bold" lengthAdjust="spacing" textLength="65" x="100" y="262.2376">Aprender</text><text fill="#000000" font-family="sans-serif" font-size="14" lengthAdjust="spacing" textLength="102" x="169" y="262.2376">continuamente</text><path d="M331,168.2038 L321,168.2038 C306,168.2038 306,256.8056 291,256.8056 L281,256.8056 " fill="none" style="stroke:#181818;stroke-width:1.0;"/><!--MD5=[7fcdbbb9e354f876eb5975756e05a877]
@startmindmap
title Perfil del egresado

+ Egresado
++ <b>Ejercer</b> ética y profesionalmente
++ <b>Responder</b> necesidades sociales
++ <b>Elaborar</b> proyectos informáticos
++ <b>Utilizar</b> metodologías bienestar
- - <b>Analizar</b> fenómenos sociales
- - <b>Colaborar</b> equipos multidisciplinares
- - <b>Impulsar</b> emprendimiento integral
- - <b>Aprender</b> continuamente
@end

PlantUML version 1.2022.7(Mon Aug 22 19:01:30 CEST 2022)
(GPL source distribution)
Java Runtime: OpenJDK Runtime Environment
JVM: OpenJDK 64-Bit Server VM
Default Encoding: UTF-8
Language: es
Country: ES
--></g></svg>