<?xml version="1.0" encoding="UTF-8" standalone="no"?><svg xmlns="http://www.w3.org/2000/svg" xmlns:xlink="http://www.w3.org/1999/xlink" contentStyleType="text/css" height="357px" preserveAspectRatio="none" style="width:949px;height:357px;background:#FFFFFF;" version="1.1" viewBox="0 0 949 357" width="949px" zoomAndPan="magnify"><defs/><g><rect fill="none" height="29.0679" id="_title" style="stroke:none;stroke-width:1.0;" width="155" x="395.5" y="15"/><text fill="#000000" font-family="sans-serif" font-size="14" font-weight="bold" lengthAdjust="spacing" textLength="145" x="400.5" y="34.9659">Salidas profesionales</text><rect fill="#F1F1F1" height="39.0679" rx="12.5" ry="12.5" style="stroke:#181818;stroke-width:1.5;" width="83" x="445" y="178.2038"/><text fill="#000000" font-family="sans-serif" font-size="14" lengthAdjust="spacing" textLength="63" x="455" y="203.1697">Egresado</text><rect fill="#F1F1F1" height="39.0679" rx="12.5" ry="12.5" style="stroke:#181818;stroke-width:1.5;" width="359" x="578" y="60.0679"/><text fill="#000000" font-family="sans-serif" font-size="14" lengthAdjust="spacing" textLength="339" x="588" y="85.0339">Director de informática y de centros de desarrollo.</text><path d="M528,197.7377 L538,197.7377 C553,197.7377 553,79.6019 568,79.6019 L578,79.6019 " fill="none" style="stroke:#181818;stroke-width:1.0;"/><rect fill="#F1F1F1" height="39.0679" rx="12.5" ry="12.5" style="stroke:#181818;stroke-width:1.5;" width="177" x="578" y="119.1358"/><text fill="#000000" font-family="sans-serif" font-size="14" lengthAdjust="spacing" textLength="157" x="588" y="144.1018">Arquitecto de software.</text><path d="M528,197.7377 L538,197.7377 C553,197.7377 553,138.6698 568,138.6698 L578,138.6698 " fill="none" style="stroke:#181818;stroke-width:1.0;"/><rect fill="#F1F1F1" height="39.0679" rx="12.5" ry="12.5" style="stroke:#181818;stroke-width:1.5;" width="134" x="578" y="178.2038"/><text fill="#000000" font-family="sans-serif" font-size="14" lengthAdjust="spacing" textLength="114" x="588" y="203.1697">Especialista SEO.</text><path d="M528,197.7377 L538,197.7377 C553,197.7377 553,197.7377 568,197.7377 L578,197.7377 " fill="none" style="stroke:#181818;stroke-width:1.0;"/><rect fill="#F1F1F1" height="39.0679" rx="12.5" ry="12.5" style="stroke:#181818;stroke-width:1.5;" width="185" x="578" y="237.2717"/><text fill="#000000" font-family="sans-serif" font-size="14" lengthAdjust="spacing" textLength="165" x="588" y="262.2376">Consultor de usabilidad.</text><path d="M528,197.7377 L538,197.7377 C553,197.7377 553,256.8056 568,256.8056 L578,256.8056 " fill="none" style="stroke:#181818;stroke-width:1.0;"/><rect fill="#F1F1F1" height="39.0679" rx="12.5" ry="12.5" style="stroke:#181818;stroke-width:1.5;" width="279" x="578" y="296.3396"/><text fill="#000000" font-family="sans-serif" font-size="14" lengthAdjust="spacing" textLength="259" x="588" y="321.3055">Desarrollador de aplicaciones móviles.</text><path d="M528,197.7377 L538,197.7377 C553,197.7377 553,315.8735 568,315.8735 L578,315.8735 " fill="none" style="stroke:#181818;stroke-width:1.0;"/><rect fill="#F1F1F1" height="39.0679" rx="12.5" ry="12.5" style="stroke:#181818;stroke-width:1.5;" width="385" x="10" y="89.6019"/><text fill="#000000" font-family="sans-serif" font-size="14" lengthAdjust="spacing" textLength="365" x="20" y="114.5678">Director, diseñador y gestor de proyectos de software.</text><path d="M445,197.7377 L435,197.7377 C420,197.7377 420,109.1358 405,109.1358 L395,109.1358 " fill="none" style="stroke:#181818;stroke-width:1.0;"/><rect fill="#F1F1F1" height="39.0679" rx="12.5" ry="12.5" style="stroke:#181818;stroke-width:1.5;" width="209" x="186" y="148.6698"/><text fill="#000000" font-family="sans-serif" font-size="14" lengthAdjust="spacing" textLength="189" x="196" y="173.6357">Ingeniero del conocimiento.</text><path d="M445,197.7377 L435,197.7377 C420,197.7377 420,168.2038 405,168.2038 L395,168.2038 " fill="none" style="stroke:#181818;stroke-width:1.0;"/><rect fill="#F1F1F1" height="39.0679" rx="12.5" ry="12.5" style="stroke:#181818;stroke-width:1.5;" width="166" x="229" y="207.7377"/><text fill="#000000" font-family="sans-serif" font-size="14" lengthAdjust="spacing" textLength="146" x="239" y="232.7036">Community manager.</text><path d="M445,197.7377 L435,197.7377 C420,197.7377 420,227.2717 405,227.2717 L395,227.2717 " fill="none" style="stroke:#181818;stroke-width:1.0;"/><rect fill="#F1F1F1" height="39.0679" rx="12.5" ry="12.5" style="stroke:#181818;stroke-width:1.5;" width="125" x="270" y="266.8056"/><text fill="#000000" font-family="sans-serif" font-size="14" lengthAdjust="spacing" textLength="105" x="280" y="291.7716">Diseñador web.</text><path d="M445,197.7377 L435,197.7377 C420,197.7377 420,286.3396 405,286.3396 L395,286.3396 " fill="none" style="stroke:#181818;stroke-width:1.0;"/><!--MD5=[dd85f4eda5ebe8d557fd65ee628f0d10]
@startmindmap
title Salidas profesionales

+ Egresado
++ Director de informática y de centros de desarrollo.
- - Director, diseñador y gestor de proyectos de software.
++ Arquitecto de software.
- - Ingeniero del conocimiento.
++ Especialista SEO.
- - Community manager.
++ Consultor de usabilidad.
- - Diseñador web.
++ Desarrollador de aplicaciones móviles.
@end

PlantUML version 1.2022.7(Mon Aug 22 19:01:30 CEST 2022)
(GPL source distribution)
Java Runtime: OpenJDK Runtime Environment
JVM: OpenJDK 64-Bit Server VM
Default Encoding: UTF-8
Language: es
Country: ES
--></g></svg>